<svg width="200" height="420" viewBox="0 0 200 420" fill="none" xmlns="http://www.w3.org/2000/svg">
<path d="M111.832 0L131.753 9.99503C151.673 20.0599 191.513 40.05 198.712 59.9702C205.981 79.8903 180.54 99.7406 170.754 119.661C160.969 139.581 166.84 159.571 175.647 179.631C184.524 199.691 196.406 219.681 190.115 239.741C183.825 259.801 159.361 279.791 162.996 299.711C166.56 319.631 198.293 339.481 194.658 359.402C191.024 379.322 152.162 399.312 132.661 409.377L113.23 419.372H0V409.377C0 399.312 0 379.322 0 359.402C0 339.481 0 319.631 0 299.711C0 279.791 0 259.801 0 239.741C0 219.681 0 199.691 0 179.631C0 159.571 0 139.581 0 119.661C0 99.7406 0 79.8903 0 59.9702C0 40.05 0 20.0599 0 9.99503V0H111.832Z" fill="#009473"/>
</svg>
