<svg id="visual" viewBox="0 0 1000 800" width="1000" height="800" xmlns="http://www.w3.org/2000/svg" xmlns:xlink="http://www.w3.org/1999/xlink" version="1.1"><rect x="0" y="0" width="1000" height="800" fill="#001122"></rect><defs><linearGradient id="grad1_0" x1="20%" y1="0%" x2="100%" y2="100%"><stop offset="25%" stop-color="#009473" stop-opacity="1"></stop><stop offset="75%" stop-color="#009473" stop-opacity="1"></stop></linearGradient></defs><defs><linearGradient id="grad1_1" x1="20%" y1="0%" x2="100%" y2="100%"><stop offset="25%" stop-color="#009473" stop-opacity="1"></stop><stop offset="75%" stop-color="#00666d" stop-opacity="1"></stop></linearGradient></defs><defs><linearGradient id="grad1_2" x1="20%" y1="0%" x2="100%" y2="100%"><stop offset="25%" stop-color="#003a4f" stop-opacity="1"></stop><stop offset="75%" stop-color="#00666d" stop-opacity="1"></stop></linearGradient></defs><defs><linearGradient id="grad1_3" x1="20%" y1="0%" x2="100%" y2="100%"><stop offset="25%" stop-color="#003a4f" stop-opacity="1"></stop><stop offset="75%" stop-color="#001122" stop-opacity="1"></stop></linearGradient></defs><defs><linearGradient id="grad2_0" x1="0%" y1="0%" x2="80%" y2="100%"><stop offset="25%" stop-color="#009473" stop-opacity="1"></stop><stop offset="75%" stop-color="#009473" stop-opacity="1"></stop></linearGradient></defs><defs><linearGradient id="grad2_1" x1="0%" y1="0%" x2="80%" y2="100%"><stop offset="25%" stop-color="#00666d" stop-opacity="1"></stop><stop offset="75%" stop-color="#009473" stop-opacity="1"></stop></linearGradient></defs><defs><linearGradient id="grad2_2" x1="0%" y1="0%" x2="80%" y2="100%"><stop offset="25%" stop-color="#00666d" stop-opacity="1"></stop><stop offset="75%" stop-color="#003a4f" stop-opacity="1"></stop></linearGradient></defs><defs><linearGradient id="grad2_3" x1="0%" y1="0%" x2="80%" y2="100%"><stop offset="25%" stop-color="#001122" stop-opacity="1"></stop><stop offset="75%" stop-color="#003a4f" stop-opacity="1"></stop></linearGradient></defs><g transform="translate(1000, 0)"><path d="M0 416.2C-59.9 383.6 -119.7 351 -185 320.4C-250.3 289.8 -321 261.2 -360.4 208.1C-399.9 155 -408 77.5 -416.2 0L0 0Z" fill="#002539"></path><path d="M0 312.2C-44.9 287.7 -89.8 263.3 -138.7 240.3C-187.7 217.4 -240.8 195.9 -270.3 156.1C-299.9 116.3 -306 58.1 -312.2 0L0 0Z" fill="#005060"></path><path d="M0 208.1C-29.9 191.8 -59.9 175.5 -92.5 160.2C-125.1 144.9 -160.5 130.6 -180.2 104.1C-199.9 77.5 -204 38.8 -208.1 0L0 0Z" fill="#007d73"></path><path d="M0 104.1C-15 95.9 -29.9 87.8 -46.2 80.1C-62.6 72.5 -80.3 65.3 -90.1 52C-100 38.8 -102 19.4 -104.1 0L0 0Z" fill="#009473"></path></g><g transform="translate(0, 800)"><path d="M0 -416.2C50.5 -367.5 101 -318.7 167.5 -290.1C234 -261.5 316.3 -253.1 360.4 -208.1C404.5 -163.1 410.4 -81.6 416.2 0L0 0Z" fill="#002539"></path><path d="M0 -312.2C37.9 -275.6 75.8 -239 125.6 -217.6C175.5 -196.1 237.3 -189.8 270.3 -156.1C303.4 -122.3 307.8 -61.2 312.2 0L0 0Z" fill="#005060"></path><path d="M0 -208.1C25.3 -183.7 50.5 -159.4 83.7 -145.1C117 -130.8 158.2 -126.5 180.2 -104.1C202.3 -81.6 205.2 -40.8 208.1 0L0 0Z" fill="#007d73"></path><path d="M0 -104.1C12.6 -91.9 25.3 -79.7 41.9 -72.5C58.5 -65.4 79.1 -63.3 90.1 -52C101.1 -40.8 102.6 -20.4 104.1 0L0 0Z" fill="#009473"></path></g></svg>