<svg width="499" height="1000" viewBox="0 0 499 1000" fill="none" xmlns="http://www.w3.org/2000/svg">
<path d="M478 0L469.8 23.8C461.7 47.7 445.3 95.3 448.3 143C451.3 190.7 473.7 238.3 486.7 286C499.7 333.7 503.3 381.3 490.7 428.8C478 476.3 449 523.7 424.2 571.2C399.3 618.7 378.7 666.3 392.8 714C407 761.7 456 809.3 469.3 857C482.7 904.7 460.3 952.3 449.2 976.2L438 1000H0V976.2C0 952.3 0 904.7 0 857C0 809.3 0 761.7 0 714C0 666.3 0 618.7 0 571.2C0 523.7 0 476.3 0 428.8C0 381.3 0 333.7 0 286C0 238.3 0 190.7 0 143C0 95.3 0 47.7 0 23.8V0H478Z" fill="#001122"/>
<path d="M441 0L413.8 23.8C386.7 47.7 332.3 95.3 313.8 143C295.3 190.7 312.7 238.3 335 286C357.3 333.7 384.7 381.3 395.3 428.8C406 476.3 400 523.7 381 571.2C362 618.7 330 666.3 314.3 714C298.7 761.7 299.3 809.3 313 857C326.7 904.7 353.3 952.3 366.7 976.2L380 1000H0V976.2C0 952.3 0 904.7 0 857C0 809.3 0 761.7 0 714C0 666.3 0 618.7 0 571.2C0 523.7 0 476.3 0 428.8C0 381.3 0 333.7 0 286C0 238.3 0 190.7 0 143C0 95.3 0 47.7 0 23.8V0H441Z" fill="#022F42"/>
<path d="M297 0L303 23.8C309 47.7 321 95.3 329.2 143C337.3 190.7 341.7 238.3 334.7 286C327.7 333.7 309.3 381.3 292.8 428.8C276.3 476.3 261.7 523.7 258.3 571.2C255 618.7 263 666.3 267.7 714C272.3 761.7 273.7 809.3 265.2 857C256.7 904.7 238.3 952.3 229.2 976.2L220 1000H0V976.2C0 952.3 0 904.7 0 857C0 809.3 0 761.7 0 714C0 666.3 0 618.7 0 571.2C0 523.7 0 476.3 0 428.8C0 381.3 0 333.7 0 286C0 238.3 0 190.7 0 143C0 95.3 0 47.7 0 23.8V0H297Z" fill="#005060"/>
<path d="M227 0L221.8 23.8C216.7 47.7 206.3 95.3 194.7 143C183 190.7 170 238.3 169.8 286C169.7 333.7 182.3 381.3 182.8 428.8C183.3 476.3 171.7 523.7 173.2 571.2C174.7 618.7 189.3 666.3 194 714C198.7 761.7 193.3 809.3 191.2 857C189 904.7 190 952.3 190.5 976.2L191 1000H0V976.2C0 952.3 0 904.7 0 857C0 809.3 0 761.7 0 714C0 666.3 0 618.7 0 571.2C0 523.7 0 476.3 0 428.8C0 381.3 0 333.7 0 286C0 238.3 0 190.7 0 143C0 95.3 0 47.7 0 23.8V0H227Z" fill="#007274"/>
<path d="M130 0L126.7 23.8C123.3 47.7 116.7 95.3 108.2 143C99.7 190.7 89.3 238.3 91.5 286C93.7 333.7 108.3 381.3 119.8 428.8C131.3 476.3 139.7 523.7 142.2 571.2C144.7 618.7 141.3 666.3 131.5 714C121.7 761.7 105.3 809.3 105.5 857C105.7 904.7 122.3 952.3 130.7 976.2L139 1000H0V976.2C0 952.3 0 904.7 0 857C0 809.3 0 761.7 0 714C0 666.3 0 618.7 0 571.2C0 523.7 0 476.3 0 428.8C0 381.3 0 333.7 0 286C0 238.3 0 190.7 0 143C0 95.3 0 47.7 0 23.8V0H130Z" fill="#009473"/>
</svg>
